<svg width="48" height="128" viewBox="0 0 48 128" fill="none" xmlns="http://www.w3.org/2000/svg">
<path opacity="0.6" d="M47.3789 128V130H49.3789V128H47.3789ZM23.2969 128H21.2969V130H23.2969V128ZM23.2969 18.9277H25.2969V16.9277H23.2969V18.9277ZM0.972656 18.9277H-1.02734V20.9277H0.972656V18.9277ZM0.972656 0.03125V-1.96875H-1.02734V0.03125H0.972656ZM47.3789 0.03125H49.3789V-1.96875H47.3789V0.03125ZM47.3789 126H23.2969V130H47.3789V126ZM25.2969 128V18.9277H21.2969V128H25.2969ZM23.2969 16.9277H0.972656V20.9277H23.2969V16.9277ZM2.97266 18.9277V0.03125H-1.02734V18.9277H2.97266ZM0.972656 2.03125H47.3789V-1.96875H0.972656V2.03125ZM45.3789 0.03125V128H49.3789V0.03125H45.3789Z" fill="url(#paint0_linear_373_2)"/>
<defs>
<linearGradient id="paint0_linear_373_2" x1="31.5" y1="-44" x2="31.5" y2="171" gradientUnits="userSpaceOnUse">
<stop stop-color="#C3BEAB"/>
<stop offset="1" stop-opacity="0.1"/>
</linearGradient>
</defs>
</svg>
