<svg width="86" height="131" viewBox="0 0 86 131" fill="none" xmlns="http://www.w3.org/2000/svg">
<path opacity="0.6" d="M84.9551 131V133H86.9551V131H84.9551ZM0.580078 131H-1.41992V133H0.580078V131ZM0.580078 107.094L-0.786331 105.633L-1.41992 106.226V107.094H0.580078ZM46.9863 63.6758L45.6217 62.2137L45.6199 62.2153L46.9863 63.6758ZM55.5996 28.2559L54.159 29.6431L54.1721 29.6567L54.1854 29.6701L55.5996 28.2559ZM27.5625 44.7793V46.7793H29.5625V44.7793H27.5625ZM2.33789 44.7793H0.337891V46.7793H2.33789V44.7793ZM13.8516 12.6992L15.292 14.0867L15.2971 14.0814L13.8516 12.6992ZM66.4102 75.541L65.0789 74.0484L65.0728 74.0539L65.0668 74.0593L66.4102 75.541ZM30.6387 107.973L29.2953 106.491L25.4551 109.973H30.6387V107.973ZM84.9551 107.973H86.9551V105.973H84.9551V107.973ZM84.9551 129H0.580078V133H84.9551V129ZM2.58008 131V107.094H-1.41992V131H2.58008ZM1.94649 108.554L48.3527 65.1362L45.6199 62.2153L-0.786331 105.633L1.94649 108.554ZM48.351 65.1379C52.8519 60.937 56.3099 56.7348 58.6639 52.5225L55.1721 50.5712C53.0729 54.3277 49.9098 58.2114 45.6217 62.2137L48.351 65.1379ZM58.6639 52.5225C61.015 48.3152 62.2578 44.1724 62.2578 40.1211H58.2578C58.2578 43.3354 57.274 46.8098 55.1721 50.5712L58.6639 52.5225ZM62.2578 40.1211C62.2578 34.8408 60.5315 30.3593 57.0138 26.8416L54.1854 29.6701C56.8787 32.3634 58.2578 35.792 58.2578 40.1211H62.2578ZM57.0402 26.8686C53.574 23.269 49.0769 21.5098 43.7344 21.5098V25.5098C48.1184 25.5098 51.5315 26.9146 54.159 29.6431L57.0402 26.8686ZM43.7344 21.5098C38.1063 21.5098 33.514 23.357 30.2514 27.2313L33.3111 29.8078C35.6735 27.0024 39.05 25.5098 43.7344 25.5098V21.5098ZM30.2514 27.2313C27.037 31.0485 25.5625 36.2547 25.5625 42.582H29.5625C29.5625 36.839 30.9005 32.6703 33.3111 29.8078L30.2514 27.2313ZM25.5625 42.582V44.7793H29.5625V42.582H25.5625ZM27.5625 42.7793H2.33789V46.7793H27.5625V42.7793ZM4.33789 44.7793V44.4277H0.337891V44.7793H4.33789ZM4.33789 44.4277C4.33789 31.6559 8.04241 21.613 15.292 14.0867L12.4111 11.3117C4.30915 19.7229 0.337891 30.8324 0.337891 44.4277H4.33789ZM15.2971 14.0814C22.5434 6.50324 32.1296 2.6582 44.2617 2.6582V-1.3418C31.1985 -1.3418 20.5113 2.84051 12.406 11.317L15.2971 14.0814ZM44.2617 2.6582C55.4351 2.6582 64.7107 6.31608 72.2244 13.6072L75.01 10.7366C66.7034 2.67611 56.4086 -1.3418 44.2617 -1.3418V2.6582ZM72.2244 13.6072C79.7443 20.9043 83.4824 29.7606 83.4824 40.2969H87.4824C87.4824 28.6847 83.3104 18.791 75.01 10.7366L72.2244 13.6072ZM83.4824 40.2969C83.4824 46.0353 82.0237 51.6605 79.061 57.1947L82.5874 59.0826C85.8356 53.0152 87.4824 46.7459 87.4824 40.2969H83.4824ZM79.061 57.1947C76.0957 62.7337 71.4613 68.3561 65.0789 74.0484L67.7414 77.0336C74.3668 71.1244 79.3418 65.1452 82.5874 59.0826L79.061 57.1947ZM65.0668 74.0593L29.2953 106.491L31.982 109.454L67.7535 77.0227L65.0668 74.0593ZM30.6387 109.973H84.9551V105.973H30.6387V109.973ZM82.9551 107.973V131H86.9551V107.973H82.9551Z" fill="url(#paint0_linear_373_2)"/>
<defs>
<linearGradient id="paint0_linear_373_2" x1="43.5" y1="-41" x2="43.5" y2="174" gradientUnits="userSpaceOnUse">
<stop stop-color="#C3BEAB"/>
<stop offset="1" stop-opacity="0.1"/>
</linearGradient>
</defs>
</svg>
