<svg width="634" height="104" viewBox="0 0 634 104" fill="none" xmlns="http://www.w3.org/2000/svg">
<g opacity="0.6">
<mask id="path-1-outside-1_256_8" maskUnits="userSpaceOnUse" x="-3" y="-2" width="639" height="108" fill="black">
<rect fill="white" x="-3" y="-2" width="639" height="108"/>
<path d="M59.1836 62.6934L47.4258 30.6328L35.3945 62.6934H59.1836ZM28.6953 81.1504L20.9707 102H0.804688L39.4277 2.46875H56.2441L94.3203 102H73.4707L65.6094 81.1504H28.6953ZM117.768 42.5273H120.023C125.401 42.5273 129.411 41.5703 132.055 39.6562C134.698 37.6966 136.02 34.7799 136.02 30.9062C136.02 27.1693 134.766 24.4121 132.26 22.6348C129.753 20.8574 125.857 19.9688 120.57 19.9688H117.768V42.5273ZM117.768 84.5H123.646C129.571 84.5 133.923 83.5202 136.703 81.5605C139.483 79.5553 140.873 76.4792 140.873 72.332C140.873 67.8203 139.415 64.4023 136.498 62.0781C133.581 59.7539 129.298 58.5918 123.646 58.5918H117.768V84.5ZM99.0371 102V2.46875H120.434C124.763 2.46875 128.204 2.65104 130.756 3.01562C133.308 3.33464 135.564 3.9043 137.523 4.72461C142.992 6.95768 147.185 10.1706 150.102 14.3633C153.018 18.556 154.477 23.4551 154.477 29.0605C154.477 33.709 153.611 37.6738 151.879 40.9551C150.147 44.2363 147.595 46.7201 144.223 48.4062C149.145 49.8646 153.018 52.6673 155.844 56.8145C158.669 60.9616 160.082 65.9062 160.082 71.6484C160.082 76.2969 159.216 80.6719 157.484 84.7734C155.753 88.8294 153.36 92.2018 150.307 94.8906C147.253 97.4427 143.835 99.2656 140.053 100.359C136.27 101.453 130.915 102 123.988 102H99.0371ZM186.742 51.3457C186.742 55.6296 187.449 59.6172 188.861 63.3086C190.274 67 192.37 70.3724 195.15 73.4258C198.204 76.7526 201.667 79.3275 205.541 81.1504C209.415 82.9277 213.425 83.8164 217.572 83.8164C226.277 83.8164 233.568 80.7174 239.447 74.5195C245.372 68.3216 248.334 60.597 248.334 51.3457C248.334 42.8691 245.349 35.6458 239.379 29.6758C233.454 23.6602 226.322 20.6523 217.982 20.6523C209.278 20.6523 201.895 23.6374 195.834 29.6074C189.773 35.5775 186.742 42.8236 186.742 51.3457ZM166.303 52.0293C166.303 46.5605 167.032 41.4108 168.49 36.5801C169.949 31.7038 172.113 27.1465 174.984 22.9082C179.906 15.7533 186.081 10.2389 193.51 6.36523C200.938 2.44596 209.05 0.486328 217.846 0.486328C224.454 0.486328 230.811 1.76237 236.918 4.31445C243.07 6.86654 248.562 10.5352 253.393 15.3203C258.36 20.2878 262.143 25.8704 264.74 32.0684C267.338 38.2663 268.637 44.7832 268.637 51.6191C268.637 58.7285 267.406 65.4049 264.945 71.6484C262.53 77.8919 258.952 83.429 254.213 88.2598C249.428 93.3184 243.845 97.2148 237.465 99.9492C231.13 102.638 224.499 103.982 217.572 103.982C210.144 103.982 203.308 102.661 197.064 100.018C190.821 97.3743 185.284 93.4551 180.453 88.2598C175.805 83.3379 172.273 77.8236 169.857 71.7168C167.488 65.5645 166.303 59.002 166.303 52.0293ZM280.873 2.46875H300.355V59.8906C300.355 68.8685 301.29 75.112 303.158 78.6211C305.072 82.0846 308.331 83.8164 312.934 83.8164C317.536 83.8164 320.772 82.0846 322.641 78.6211C324.555 75.112 325.512 68.8685 325.512 59.8906V2.46875H344.994V65.6328C344.994 72.651 344.607 77.9147 343.832 81.4238C343.057 84.9329 341.758 88.0091 339.936 90.6523C336.837 95.2096 333.1 98.582 328.725 100.77C324.35 102.911 319.086 103.982 312.934 103.982C306.781 103.982 301.518 102.911 297.143 100.77C292.768 98.582 289.031 95.2096 285.932 90.6523C284.109 88.0091 282.81 85.0469 282.035 81.7656C281.26 78.4844 280.873 73.1068 280.873 65.6328V2.46875ZM411.098 2.46875V19.9688H392.299V102H372.885V19.9688H354.086V2.46875H411.098ZM480.209 102H460.932V2.46875H486.703L511.996 74.8613L537.221 2.46875H562.992V102H543.783L544.467 29.7441L519.311 102H504.613L479.389 29.7441L480.209 102ZM633.334 102H579.604V2.46875H633.334V19.9688H598.881V42.6641H633.334V59.8906H598.881V84.5H633.334V102Z"/>
</mask>
<path d="M59.1836 62.6934V64.6934H62.0473L61.0613 62.0047L59.1836 62.6934ZM47.4258 30.6328L49.3035 29.9442L47.4473 24.8829L45.5533 29.9301L47.4258 30.6328ZM35.3945 62.6934L33.522 61.9907L32.5078 64.6934H35.3945V62.6934ZM28.6953 81.1504V79.1504H27.3034L26.8199 80.4556L28.6953 81.1504ZM20.9707 102V104H22.3626L22.8461 102.695L20.9707 102ZM0.804688 102L-1.05985 101.276L-2.11672 104H0.804688V102ZM39.4277 2.46875V0.46875H38.0585L37.5632 1.74522L39.4277 2.46875ZM56.2441 2.46875L58.1121 1.75415L57.6204 0.46875H56.2441V2.46875ZM94.3203 102V104H97.2268L96.1883 101.285L94.3203 102ZM73.4707 102L71.5993 102.706L72.0874 104H73.4707V102ZM65.6094 81.1504L67.4808 80.4448L66.9927 79.1504H65.6094V81.1504ZM61.0613 62.0047L49.3035 29.9442L45.5481 31.3214L57.3059 63.382L61.0613 62.0047ZM45.5533 29.9301L33.522 61.9907L37.267 63.396L49.2983 31.3355L45.5533 29.9301ZM35.3945 64.6934H59.1836V60.6934H35.3945V64.6934ZM26.8199 80.4556L19.0953 101.305L22.8461 102.695L30.5707 81.8452L26.8199 80.4556ZM20.9707 100H0.804688V104H20.9707V100ZM2.66922 102.724L41.2923 3.19228L37.5632 1.74522L-1.05985 101.276L2.66922 102.724ZM39.4277 4.46875H56.2441V0.46875H39.4277V4.46875ZM54.3762 3.18335L92.4523 102.715L96.1883 101.285L58.1121 1.75415L54.3762 3.18335ZM94.3203 100H73.4707V104H94.3203V100ZM75.3421 101.294L67.4808 80.4448L63.738 81.856L71.5993 102.706L75.3421 101.294ZM65.6094 79.1504H28.6953V83.1504H65.6094V79.1504ZM117.768 42.5273H115.768V44.5273H117.768V42.5273ZM132.055 39.6562L133.228 41.2761L133.237 41.2696L133.246 41.2629L132.055 39.6562ZM117.768 19.9688V17.9688H115.768V19.9688H117.768ZM117.768 84.5H115.768V86.5H117.768V84.5ZM136.703 81.5605L137.855 83.1952L137.864 83.189L137.873 83.1826L136.703 81.5605ZM117.768 58.5918V56.5918H115.768V58.5918H117.768ZM99.0371 102H97.0371V104H99.0371V102ZM99.0371 2.46875V0.46875H97.0371V2.46875H99.0371ZM130.756 3.01562L130.473 4.99553L130.49 4.998L130.508 5.00018L130.756 3.01562ZM137.523 4.72461L136.751 6.56949L136.759 6.57288L136.767 6.57619L137.523 4.72461ZM144.223 48.4062L143.328 46.6174L138.795 48.884L143.654 50.3238L144.223 48.4062ZM155.844 56.8145L154.191 57.9406L155.844 56.8145ZM157.484 84.7734L159.324 85.5588L159.327 85.5514L157.484 84.7734ZM150.307 94.8906L151.589 96.4252L151.609 96.4086L151.628 96.3916L150.307 94.8906ZM117.768 44.5273H120.023V40.5273H117.768V44.5273ZM120.023 44.5273C125.574 44.5273 130.086 43.5514 133.228 41.2761L130.882 38.0364C128.737 39.5893 125.228 40.5273 120.023 40.5273V44.5273ZM133.246 41.2629C136.492 38.8561 138.02 35.2861 138.02 30.9062H134.02C134.02 34.2738 132.904 36.5371 130.864 38.0496L133.246 41.2629ZM138.02 30.9062C138.02 26.6794 136.569 23.2388 133.417 21.0033L131.103 24.2662C132.963 25.5854 134.02 27.6591 134.02 30.9062H138.02ZM133.417 21.0033C130.405 18.8681 126.005 17.9688 120.57 17.9688V21.9688C125.709 21.9688 129.101 22.8467 131.103 24.2662L133.417 21.0033ZM120.57 17.9688H117.768V21.9688H120.57V17.9688ZM115.768 19.9688V42.5273H119.768V19.9688H115.768ZM117.768 86.5H123.646V82.5H117.768V86.5ZM123.646 86.5C129.712 86.5 134.569 85.5117 137.855 83.1952L135.551 79.9259C133.277 81.5286 129.43 82.5 123.646 82.5V86.5ZM137.873 83.1826C141.287 80.7204 142.873 76.9695 142.873 72.332H138.873C138.873 75.9888 137.68 78.3903 135.533 79.9385L137.873 83.1826ZM142.873 72.332C142.873 67.3531 141.238 63.298 137.744 60.514L135.252 63.6422C137.591 65.5067 138.873 68.2876 138.873 72.332H142.873ZM137.744 60.514C134.332 57.7946 129.528 56.5918 123.646 56.5918V60.5918C129.067 60.5918 132.831 61.7132 135.252 63.6422L137.744 60.514ZM123.646 56.5918H117.768V60.5918H123.646V56.5918ZM115.768 58.5918V84.5H119.768V58.5918H115.768ZM101.037 102V2.46875H97.0371V102H101.037ZM99.0371 4.46875H120.434V0.46875H99.0371V4.46875ZM120.434 4.46875C124.723 4.46875 128.056 4.65027 130.473 4.99553L131.039 1.03572C128.351 0.65181 124.803 0.46875 120.434 0.46875V4.46875ZM130.508 5.00018C132.916 5.30122 134.99 5.83224 136.751 6.56949L138.296 2.87973C136.138 1.97635 133.7 1.36805 131.004 1.03107L130.508 5.00018ZM136.767 6.57619C141.936 8.68666 145.797 11.677 148.46 15.5054L151.743 13.2212C148.573 8.66415 144.049 5.2287 138.279 2.87302L136.767 6.57619ZM148.46 15.5054C151.12 19.3302 152.477 23.8217 152.477 29.0605H156.477C156.477 23.0884 154.916 17.7817 151.743 13.2212L148.46 15.5054ZM152.477 29.0605C152.477 33.4643 151.656 37.0918 150.11 40.0216L153.648 41.8886C155.565 38.2559 156.477 33.9537 156.477 29.0605H152.477ZM150.11 40.0216C148.577 42.927 146.334 45.1148 143.328 46.6174L145.117 50.1951C148.857 48.3253 151.718 45.5456 153.648 41.8886L150.11 40.0216ZM143.654 50.3238C148.145 51.6545 151.631 54.1838 154.191 57.9406L157.497 55.6883C154.405 51.1509 150.144 48.0747 144.791 46.4887L143.654 50.3238ZM154.191 57.9406C156.759 61.7095 158.082 66.2482 158.082 71.6484H162.082C162.082 65.5643 160.58 60.2137 157.497 55.6883L154.191 57.9406ZM158.082 71.6484C158.082 76.0416 157.265 80.1509 155.642 83.9955L159.327 85.5514C161.167 81.1928 162.082 76.5521 162.082 71.6484H158.082ZM155.645 83.9881C154.02 87.7934 151.796 90.914 148.985 93.3896L151.628 96.3916C154.924 93.4897 157.485 89.8655 159.324 85.5588L155.645 83.9881ZM149.024 93.3561C146.181 95.7321 143.01 97.4223 139.497 98.4381L140.608 102.281C144.66 101.109 148.325 99.1533 151.589 96.4252L149.024 93.3561ZM139.497 98.4381C135.982 99.4545 130.847 100 123.988 100V104C130.984 104 136.558 103.452 140.608 102.281L139.497 98.4381ZM123.988 100H99.0371V104H123.988V100ZM195.15 73.4258L193.671 74.7722L193.677 74.7781L195.15 73.4258ZM205.541 81.1504L204.689 82.96L204.698 82.9641L204.707 82.9682L205.541 81.1504ZM239.447 74.5195L238.002 73.1376L237.996 73.1432L239.447 74.5195ZM239.379 29.6758L237.954 31.0792L237.959 31.0846L237.965 31.09L239.379 29.6758ZM195.834 29.6074L194.431 28.1825L195.834 29.6074ZM168.49 36.5801L170.405 37.1581L170.406 37.1531L168.49 36.5801ZM174.984 22.9082L173.337 21.7747L173.333 21.7806L173.329 21.7865L174.984 22.9082ZM193.51 6.36523L194.435 8.13862L194.443 8.13413L193.51 6.36523ZM236.918 4.31445L236.147 6.1598L236.152 6.16182L236.918 4.31445ZM253.393 15.3203L254.807 13.9061L254.8 13.8994L253.393 15.3203ZM264.74 32.0684L262.896 32.8414L264.74 32.0684ZM264.945 71.6484L263.085 70.915L263.08 70.9268L264.945 71.6484ZM254.213 88.2598L252.785 86.8591L252.772 86.8721L252.76 86.8854L254.213 88.2598ZM237.465 99.9492L238.246 101.79L238.253 101.788L237.465 99.9492ZM180.453 88.2598L181.918 86.8979L181.912 86.8922L181.907 86.8865L180.453 88.2598ZM169.857 71.7168L167.991 72.4357L167.994 72.4441L167.998 72.4524L169.857 71.7168ZM184.742 51.3457C184.742 55.8533 185.486 60.0854 186.993 64.0235L190.729 62.5937C189.411 59.149 188.742 55.4058 188.742 51.3457H184.742ZM186.993 64.0235C188.499 67.9582 190.731 71.5428 193.672 74.7722L196.629 72.0793C194.01 69.202 192.049 66.0418 190.729 62.5937L186.993 64.0235ZM193.677 74.7781C196.896 78.2857 200.568 81.0205 204.689 82.96L206.393 79.3408C202.767 77.6344 199.511 75.2195 196.624 72.0734L193.677 74.7781ZM204.707 82.9682C208.835 84.8622 213.129 85.8164 217.572 85.8164V81.8164C213.721 81.8164 209.995 80.9933 206.375 79.3326L204.707 82.9682ZM217.572 85.8164C226.814 85.8164 234.634 82.5004 240.898 75.8959L237.996 73.1432C232.503 78.9345 225.74 81.8164 217.572 81.8164V85.8164ZM240.893 75.9015C247.203 69.3004 250.334 61.0672 250.334 51.3457H246.334C246.334 60.1268 243.541 67.3428 238.002 73.1376L240.893 75.9015ZM250.334 51.3457C250.334 42.3411 247.14 34.6084 240.793 28.2616L237.965 31.09C243.558 36.6833 246.334 43.3972 246.334 51.3457H250.334ZM240.804 28.2724C234.509 21.8804 226.865 18.6523 217.982 18.6523V22.6523C225.779 22.6523 232.4 25.4399 237.954 31.0792L240.804 28.2724ZM217.982 18.6523C208.766 18.6523 200.875 21.8345 194.431 28.1825L197.237 31.0323C202.915 25.4402 209.79 22.6523 217.982 22.6523V18.6523ZM194.431 28.1825C187.987 34.5292 184.742 42.2889 184.742 51.3457H188.742C188.742 43.3582 191.559 36.6257 197.237 31.0323L194.431 28.1825ZM168.303 52.0293C168.303 46.74 169.008 41.7864 170.405 37.1581L166.576 36.0021C165.056 41.0353 164.303 46.3811 164.303 52.0293H168.303ZM170.406 37.1531C171.806 32.473 173.883 28.1006 176.64 24.0299L173.329 21.7865C170.344 26.1924 168.091 30.9345 166.574 36.007L170.406 37.1531ZM176.632 24.0417C181.376 17.1457 187.307 11.8556 194.435 8.1386L192.585 4.59187C184.856 8.62224 178.437 14.3608 173.337 21.7747L176.632 24.0417ZM194.443 8.13413C201.57 4.37387 209.36 2.48633 217.846 2.48633V-1.51367C208.741 -1.51367 200.306 0.518051 192.576 4.59634L194.443 8.13413ZM217.846 2.48633C224.189 2.48633 230.284 3.70963 236.147 6.15979L237.689 2.46912C231.339 -0.184893 224.719 -1.51367 217.846 -1.51367V2.48633ZM236.152 6.16182C242.06 8.61253 247.335 12.1345 251.985 16.7412L254.8 13.8994C249.789 8.9358 244.081 5.12054 237.684 2.46709L236.152 6.16182ZM251.978 16.7345C256.771 21.5267 260.403 26.894 262.896 32.8414L266.585 31.2953C263.882 24.8469 259.949 19.0488 254.807 13.9061L251.978 16.7345ZM262.896 32.8414C265.389 38.7902 266.637 45.044 266.637 51.6191H270.637C270.637 44.5224 269.287 37.7423 266.585 31.2953L262.896 32.8414ZM266.637 51.6191C266.637 58.4925 265.448 64.9187 263.085 70.915L266.806 72.3818C269.364 65.8912 270.637 58.9645 270.637 51.6191H266.637ZM263.08 70.9268C260.764 76.9137 257.336 82.2204 252.785 86.8591L255.641 89.6604C260.569 84.6377 264.296 78.8701 266.811 72.37L263.08 70.9268ZM252.76 86.8854C248.162 91.7462 242.805 95.4845 236.677 98.1109L238.253 101.788C244.885 98.9452 250.694 94.8905 255.666 89.6342L252.76 86.8854ZM236.683 98.1082C230.598 100.691 224.233 101.982 217.572 101.982V105.982C224.766 105.982 231.663 104.585 238.246 101.79L236.683 98.1082ZM217.572 101.982C210.386 101.982 203.818 100.705 197.844 98.1758L196.285 101.859C202.798 104.617 209.902 105.982 217.572 105.982V101.982ZM197.844 98.1758C191.872 95.6476 186.566 91.8965 181.918 86.8979L178.988 89.6217C184.002 95.0136 189.77 99.1011 196.285 101.859L197.844 98.1758ZM181.907 86.8865C177.428 82.1436 174.036 76.8442 171.717 70.9812L167.998 72.4524C170.509 78.8029 174.182 84.5321 178.999 89.633L181.907 86.8865ZM171.724 70.9979C169.447 65.0879 168.303 58.7705 168.303 52.0293H164.303C164.303 59.2334 165.528 66.041 167.991 72.4357L171.724 70.9979ZM280.873 2.46875V0.46875H278.873V2.46875H280.873ZM300.355 2.46875H302.355V0.46875H300.355V2.46875ZM303.158 78.6211L301.393 79.5611L301.4 79.5748L301.408 79.5885L303.158 78.6211ZM322.641 78.6211L320.885 77.6634L320.88 77.6715L322.641 78.6211ZM325.512 2.46875V0.46875H323.512V2.46875H325.512ZM344.994 2.46875H346.994V0.46875H344.994V2.46875ZM343.832 81.4238L341.879 80.9927L343.832 81.4238ZM339.936 90.6523L338.289 89.5169L338.282 89.5277L339.936 90.6523ZM328.725 100.77L329.604 102.566L329.612 102.562L329.619 102.558L328.725 100.77ZM297.143 100.77L296.248 102.558L296.256 102.562L296.263 102.566L297.143 100.77ZM285.932 90.6523L287.586 89.5277L287.578 89.5169L285.932 90.6523ZM282.035 81.7656L280.089 82.2252L282.035 81.7656ZM280.873 4.46875H300.355V0.46875H280.873V4.46875ZM298.355 2.46875V59.8906H302.355V2.46875H298.355ZM298.355 59.8906C298.355 68.8818 299.27 75.5746 301.393 79.5611L304.924 77.6811C303.309 74.6493 302.355 68.8552 302.355 59.8906H298.355ZM301.408 79.5885C303.738 83.805 307.746 85.8164 312.934 85.8164V81.8164C308.916 81.8164 306.407 80.3642 304.909 77.6537L301.408 79.5885ZM312.934 85.8164C318.121 85.8164 322.117 83.8036 324.401 79.5707L320.88 77.6715C319.427 80.3656 316.952 81.8164 312.934 81.8164V85.8164ZM324.396 79.5788C326.575 75.5856 327.512 68.8837 327.512 59.8906H323.512C323.512 68.8533 322.535 74.6383 320.885 77.6634L324.396 79.5788ZM327.512 59.8906V2.46875H323.512V59.8906H327.512ZM325.512 4.46875H344.994V0.46875H325.512V4.46875ZM342.994 2.46875V65.6328H346.994V2.46875H342.994ZM342.994 65.6328C342.994 72.6156 342.605 77.7024 341.879 80.9927L345.785 81.855C346.608 78.127 346.994 72.6865 346.994 65.6328H342.994ZM341.879 80.9927C341.153 84.2794 339.949 87.1103 338.289 89.5169L341.582 91.7878C343.568 88.9079 344.961 85.5865 345.785 81.855L341.879 80.9927ZM338.282 89.5277C335.35 93.8388 331.862 96.9646 327.83 98.9807L329.619 102.558C334.337 100.199 338.323 96.5805 341.589 91.777L338.282 89.5277ZM327.845 98.9733C323.806 100.951 318.859 101.982 312.934 101.982V105.982C319.313 105.982 324.893 104.872 329.604 102.566L327.845 98.9733ZM312.934 101.982C307.008 101.982 302.061 100.951 298.022 98.9733L296.263 102.566C300.974 104.872 306.554 105.982 312.934 105.982V101.982ZM298.037 98.9807C294.005 96.9646 290.517 93.8388 287.585 89.5277L284.278 91.777C287.544 96.5805 291.53 100.199 296.248 102.558L298.037 98.9807ZM287.578 89.5169C285.903 87.0885 284.702 84.3576 283.982 81.306L280.089 82.2252C280.918 85.7362 282.314 88.9298 284.285 91.7878L287.578 89.5169ZM283.982 81.306C283.264 78.2686 282.873 73.0925 282.873 65.6328H278.873C278.873 73.121 279.256 78.7001 280.089 82.2252L283.982 81.306ZM282.873 65.6328V2.46875H278.873V65.6328H282.873ZM411.098 2.46875H413.098V0.46875H411.098V2.46875ZM411.098 19.9688V21.9688H413.098V19.9688H411.098ZM392.299 19.9688V17.9688H390.299V19.9688H392.299ZM392.299 102V104H394.299V102H392.299ZM372.885 102H370.885V104H372.885V102ZM372.885 19.9688H374.885V17.9688H372.885V19.9688ZM354.086 19.9688H352.086V21.9688H354.086V19.9688ZM354.086 2.46875V0.46875H352.086V2.46875H354.086ZM409.098 2.46875V19.9688H413.098V2.46875H409.098ZM411.098 17.9688H392.299V21.9688H411.098V17.9688ZM390.299 19.9688V102H394.299V19.9688H390.299ZM392.299 100H372.885V104H392.299V100ZM374.885 102V19.9688H370.885V102H374.885ZM372.885 17.9688H354.086V21.9688H372.885V17.9688ZM356.086 19.9688V2.46875H352.086V19.9688H356.086ZM354.086 4.46875H411.098V0.46875H354.086V4.46875ZM480.209 102V104H482.232L482.209 101.977L480.209 102ZM460.932 102H458.932V104H460.932V102ZM460.932 2.46875V0.46875H458.932V2.46875H460.932ZM486.703 2.46875L488.591 1.80908L488.123 0.46875H486.703V2.46875ZM511.996 74.8613L510.108 75.521L511.999 80.9323L513.885 75.5194L511.996 74.8613ZM537.221 2.46875V0.46875H535.8L535.332 1.81067L537.221 2.46875ZM562.992 2.46875H564.992V0.46875H562.992V2.46875ZM562.992 102V104H564.992V102H562.992ZM543.783 102L541.783 101.981L541.764 104H543.783V102ZM544.467 29.7441L546.467 29.7631L542.578 29.0865L544.467 29.7441ZM519.311 102V104H520.732L521.199 102.658L519.311 102ZM504.613 102L502.725 102.659L503.193 104H504.613V102ZM479.389 29.7441L481.277 29.085L477.389 29.7668L479.389 29.7441ZM480.209 100H460.932V104H480.209V100ZM462.932 102V2.46875H458.932V102H462.932ZM460.932 4.46875H486.703V0.46875H460.932V4.46875ZM484.815 3.12842L510.108 75.521L513.884 74.2017L488.591 1.80908L484.815 3.12842ZM513.885 75.5194L539.109 3.12683L535.332 1.81067L510.107 74.2032L513.885 75.5194ZM537.221 4.46875H562.992V0.46875H537.221V4.46875ZM560.992 2.46875V102H564.992V2.46875H560.992ZM562.992 100H543.783V104H562.992V100ZM545.783 102.019L546.467 29.7631L542.467 29.7252L541.783 101.981L545.783 102.019ZM542.578 29.0865L517.422 101.342L521.199 102.658L546.356 30.4017L542.578 29.0865ZM519.311 100H504.613V104H519.311V100ZM506.502 101.341L481.277 29.085L477.5 30.4033L502.725 102.659L506.502 101.341ZM477.389 29.7668L478.209 102.023L482.209 101.977L481.389 29.7214L477.389 29.7668ZM633.334 102V104H635.334V102H633.334ZM579.604 102H577.604V104H579.604V102ZM579.604 2.46875V0.46875H577.604V2.46875H579.604ZM633.334 2.46875H635.334V0.46875H633.334V2.46875ZM633.334 19.9688V21.9688H635.334V19.9688H633.334ZM598.881 19.9688V17.9688H596.881V19.9688H598.881ZM598.881 42.6641H596.881V44.6641H598.881V42.6641ZM633.334 42.6641H635.334V40.6641H633.334V42.6641ZM633.334 59.8906V61.8906H635.334V59.8906H633.334ZM598.881 59.8906V57.8906H596.881V59.8906H598.881ZM598.881 84.5H596.881V86.5H598.881V84.5ZM633.334 84.5H635.334V82.5H633.334V84.5ZM633.334 100H579.604V104H633.334V100ZM581.604 102V2.46875H577.604V102H581.604ZM579.604 4.46875H633.334V0.46875H579.604V4.46875ZM631.334 2.46875V19.9688H635.334V2.46875H631.334ZM633.334 17.9688H598.881V21.9688H633.334V17.9688ZM596.881 19.9688V42.6641H600.881V19.9688H596.881ZM598.881 44.6641H633.334V40.6641H598.881V44.6641ZM631.334 42.6641V59.8906H635.334V42.6641H631.334ZM633.334 57.8906H598.881V61.8906H633.334V57.8906ZM596.881 59.8906V84.5H600.881V59.8906H596.881ZM598.881 86.5H633.334V82.5H598.881V86.5ZM631.334 84.5V102H635.334V84.5H631.334Z" fill="url(#paint0_linear_256_8)" mask="url(#path-1-outside-1_256_8)"/>
</g>
<defs>
<linearGradient id="paint0_linear_256_8" x1="324" y1="-32" x2="324" y2="135" gradientUnits="userSpaceOnUse">
<stop stop-color="#A7BAFF"/>
<stop offset="1" stop-opacity="0.1"/>
</linearGradient>
</defs>
</svg>
